<svg xmlns="http://www.w3.org/2000/svg" xmlns:xlink="http://www.w3.org/1999/xlink" viewBox="0 0 144 105" preserveAspectRatio="xMidYMid meet" style="width: 100%; height: 100%; transform: translate3d(0px, 0px, 0px); content-visibility: visible;"><defs><clipPath id="__lottie_element_2"><rect width="144" height="105" x="0" y="0"></rect></clipPath></defs><g clip-path="url(#__lottie_element_2)"><g transform="matrix(1,0,0,1,99,49.91583251953125)" opacity="1" style="display: block;"><g opacity="1" transform="matrix(3,0,0,3,0,0)"><path fill="rgb(107,117,126)" fill-opacity="1" d=" M0,-3 C1.6556999683380127,-3 3,-1.6556999683380127 3,0 C3,1.6556999683380127 1.6556999683380127,3 0,3 C-1.6556999683380127,3 -3,1.6556999683380127 -3,0 C-3,-1.6556999683380127 -1.6556999683380127,-3 0,-3z"></path></g></g><g transform="matrix(1,0,0,1,72,51)" opacity="1" style="display: block;"><g opacity="1" transform="matrix(3,0,0,3,0,0)"><path fill="rgb(176,185,192)" fill-opacity="1" d=" M0,-3 C1.6556999683380127,-3 3,-1.6556999683380127 3,0 C3,1.6556999683380127 1.6556999683380127,3 0,3 C-1.6556999683380127,3 -3,1.6556999683380127 -3,0 C-3,-1.6556999683380127 -1.6556999683380127,-3 0,-3z"></path></g></g><g transform="matrix(1,0,0,1,45,51)" opacity="1" style="display: block;"><g opacity="1" transform="matrix(3,0,0,3,0,0)"><path fill="rgb(176,185,192)" fill-opacity="1" d=" M0,-3 C1.6556999683380127,-3 3,-1.6556999683380127 3,0 C3,1.6556999683380127 1.6556999683380127,3 0,3 C-1.6556999683380127,3 -3,1.6556999683380127 -3,0 C-3,-1.6556999683380127 -1.6556999683380127,-3 0,-3z"></path></g></g></g></svg>