<svg width="34" height="32" viewBox="0 0 34 32" fill="none" xmlns="http://www.w3.org/2000/svg">
    <rect x="0.497803" y="0.560547" width="32.9969" height="30.4587" rx="5.21004" fill="url(#paint0_radial_0_1)"/>
    <path d="M17.54 24.1093L16.9905 23.7951L19.2555 12.2925L23.0482 16.6484L17.54 24.1093Z" fill="white" fill-opacity="0.15"/>
    <path d="M23.274 7.22241C23.2715 13.4628 23.2669 16.6058 23.2603 16.6515C23.2523 16.7177 23.2273 16.7808 23.1879 16.8347L16.6741 25.6905L10.1548 16.8347C10.1154 16.7808 10.0905 16.7177 10.0825 16.6515C10.0775 16.5961 10.0753 16.5628 10.0761 16.5516V7.22241L14.1976 11.8824L19.1708 11.8742L23.274 7.22241ZM17.448 24.018L22.8646 16.6487L19.2551 12.4759L17.1733 23.7038L17.448 24.018ZM15.9011 24.018L16.174 23.7075L14.0922 12.4787L10.4827 16.6515L15.9011 24.018Z" fill="white"/>
    <path d="M20.7189 16.8276L18.8907 18.9296L18.5977 17.64L20.7189 16.8276Z" fill="white"/>
    <defs>
        <radialGradient id="paint0_radial_0_1" cx="0" cy="0" r="1" gradientUnits="userSpaceOnUse" gradientTransform="translate(-20.231 -22.8692) rotate(50.085) scale(91.6422 93.2325)">
            <stop stop-color="#546171"/>
            <stop offset="0.0001" stop-color="#141C27"/>
            <stop offset="1" stop-color="#586575"/>
        </radialGradient>
    </defs>
</svg>
