<svg width="18" height="19" viewBox="0 0 18 19" fill="none" xmlns="http://www.w3.org/2000/svg">
    <path d="M16.9764 8.37545L1.41163 0.124143C1.28964 0.0594581 1.15262 0.0335401 1.01705 0.0495103C0.881489 0.0654804 0.75317 0.122658 0.647545 0.214157C0.546674 0.303791 0.471384 0.42148 0.43014 0.553994C0.388895 0.686508 0.383331 0.828593 0.414073 0.964276L2.28892 8.29293H10.2906V9.79317H2.28892L0.385774 17.0993C0.356927 17.2126 0.353559 17.3315 0.375943 17.4465C0.398326 17.5614 0.445835 17.6692 0.514649 17.7611C0.583464 17.8531 0.671664 17.9266 0.772158 17.9758C0.872652 18.025 0.982635 18.0485 1.09326 18.0445C1.20402 18.0438 1.31307 18.0155 1.41163 17.962L16.9764 9.71066C17.0923 9.64771 17.1896 9.55207 17.2575 9.43428C17.3254 9.31649 17.3613 9.18111 17.3613 9.04305C17.3613 8.90499 17.3254 8.76962 17.2575 8.65182C17.1896 8.53403 17.0923 8.43839 16.9764 8.37545Z" fill="#354657" />
</svg>