<svg width="16" height="13" viewBox="0 0 16 13" fill="none" xmlns="http://www.w3.org/2000/svg">
<path d="M1.62172 12.7699C1.32175 12.7699 1.05927 12.6574 0.834295 12.4324C0.609316 12.2074 0.496826 11.945 0.496826 11.645V1.89589C0.496826 1.59592 0.609316 1.33344 0.834295 1.10846C1.05927 0.883486 1.32175 0.770996 1.62172 0.770996H11.3708C11.6708 0.770996 11.9333 0.883486 12.1582 1.10846C12.3832 1.33344 12.4957 1.59592 12.4957 1.89589V5.92677L15.4954 2.92705V10.6138L12.4957 7.61411V11.645C12.4957 11.945 12.3832 12.2074 12.1582 12.4324C11.9333 12.6574 11.6708 12.7699 11.3708 12.7699H1.62172Z" fill="#fff"/>
</svg>
