<svg width="24" height="25" viewBox="0 0 24 25" fill="none" xmlns="http://www.w3.org/2000/svg">
    <path d="M5.5 21.4373C5.08333 21.4373 4.72917 21.2914 4.4375 20.9998C4.14583 20.7081 4 20.3539 4 19.9373V10.1873C4 9.95392 4.05417 9.72892 4.1625 9.51226C4.27083 9.29559 4.41667 9.12059 4.6 8.98726L11.1 4.11226C11.2333 4.01226 11.375 3.93726 11.525 3.88726C11.675 3.83726 11.8333 3.81226 12 3.81226C12.1667 3.81226 12.325 3.83726 12.475 3.88726C12.625 3.93726 12.7667 4.01226 12.9 4.11226L19.4 8.98726C19.5833 9.12059 19.7292 9.29559 19.8375 9.51226C19.9458 9.72892 20 9.95392 20 10.1873V19.9373C20 20.3539 19.8542 20.7081 19.5625 20.9998C19.2708 21.2914 18.9167 21.4373 18.5 21.4373H14V14.4373H10V21.4373H5.5Z" fill="#D1D1D1"/>
</svg>
