<svg width="24" height="24" viewBox="0 0 24 24" fill="transparent" xmlns="http://www.w3.org/2000/svg">
    <g clip-path="url(#clip0_47_519)">
        <path d="M0.00244141 4.50098C0.00244141 3.70533 0.318512 2.94227 0.881121 2.37966C1.44373 1.81705 2.20679 1.50098 3.00244 1.50098H21.0024C21.7981 1.50098 22.5612 1.81705 23.1238 2.37966C23.6864 2.94227 24.0024 3.70533 24.0024 4.50098V19.501C24.0024 20.2966 23.6864 21.0597 23.1238 21.6223C22.5612 22.1849 21.7981 22.501 21.0024 22.501H3.00244C2.20679 22.501 1.44373 22.1849 0.881121 21.6223C0.318512 21.0597 0.00244141 20.2966 0.00244141 19.501V4.50098ZM1.50244 18.001V19.501C1.50244 19.8988 1.66048 20.2803 1.94178 20.5616C2.22309 20.8429 2.60462 21.001 3.00244 21.001H21.0024C21.4003 21.001 21.7818 20.8429 22.0631 20.5616C22.3444 20.2803 22.5024 19.8988 22.5024 19.501V14.251L16.8369 11.3305C16.6963 11.26 16.537 11.2356 16.3817 11.2606C16.2264 11.2856 16.0828 11.3589 15.9714 11.47L10.4064 17.035L6.41644 14.377C6.27238 14.2811 6.09958 14.2379 5.92735 14.2549C5.75511 14.2718 5.59404 14.3478 5.47144 14.47L1.50244 18.001ZM9.00244 8.25098C9.00244 7.65424 8.76539 7.08194 8.34343 6.65999C7.92147 6.23803 7.34918 6.00098 6.75244 6.00098C6.1557 6.00098 5.58341 6.23803 5.16145 6.65999C4.73949 7.08194 4.50244 7.65424 4.50244 8.25098C4.50244 8.84771 4.73949 9.42001 5.16145 9.84197C5.58341 10.2639 6.1557 10.501 6.75244 10.501C7.34918 10.501 7.92147 10.2639 8.34343 9.84197C8.76539 9.42001 9.00244 8.84771 9.00244 8.25098Z" fill="#fff" />
    </g>
    <defs>
        <clipPath id="clip0_47_519">
            <rect width="24" height="24" fill="#fff" transform="translate(-0.000976562 0.000488281)" />
        </clipPath>
    </defs>
</svg>