<svg width="20" height="20" viewBox="0 0 20 20" fill="none" xmlns="http://www.w3.org/2000/svg">
    <path d="M11.3748 18.3332H8.62484C8.47206 18.3332 8.33664 18.2846 8.21859 18.1873C8.10053 18.0901 8.02761 17.9651 7.99984 17.8123L7.6665 15.7082C7.40261 15.6109 7.12484 15.479 6.83317 15.3123C6.5415 15.1457 6.28456 14.9721 6.06234 14.7915L4.12484 15.6873C3.97206 15.7568 3.81928 15.7672 3.6665 15.7186C3.51373 15.67 3.39567 15.5693 3.31234 15.4165L1.93734 12.979C1.854 12.8401 1.83317 12.6943 1.87484 12.5415C1.9165 12.3887 1.99984 12.2637 2.12484 12.1665L3.9165 10.854C3.88873 10.729 3.87136 10.5866 3.86442 10.4269C3.85748 10.2672 3.854 10.1248 3.854 9.99984C3.854 9.87484 3.85748 9.73248 3.86442 9.57275C3.87136 9.41303 3.88873 9.27067 3.9165 9.14567L2.12484 7.83317C1.99984 7.73595 1.9165 7.61095 1.87484 7.45817C1.83317 7.30539 1.854 7.15956 1.93734 7.02067L3.31234 4.58317C3.39567 4.43039 3.51373 4.3297 3.6665 4.28109C3.81928 4.23248 3.97206 4.24289 4.12484 4.31234L6.06234 5.20817C6.28456 5.02761 6.5415 4.854 6.83317 4.68734C7.12484 4.52067 7.40261 4.39567 7.6665 4.31234L7.99984 2.18734C8.02761 2.03456 8.10053 1.90956 8.21859 1.81234C8.33664 1.71511 8.47206 1.6665 8.62484 1.6665H11.3748C11.5276 1.6665 11.663 1.71511 11.7811 1.81234C11.8991 1.90956 11.9721 2.03456 11.9998 2.18734L12.3332 4.2915C12.5971 4.38873 12.8783 4.5172 13.1769 4.67692C13.4755 4.83664 13.729 5.01373 13.9373 5.20817L15.8748 4.31234C16.0276 4.24289 16.1804 4.23248 16.3332 4.28109C16.4859 4.3297 16.604 4.43039 16.6873 4.58317L18.0623 6.99984C18.1457 7.13873 18.17 7.28803 18.1353 7.44775C18.1005 7.60748 18.0137 7.73595 17.8748 7.83317L16.0832 9.104C16.1109 9.24289 16.1283 9.3922 16.1353 9.55192C16.1422 9.71164 16.1457 9.86095 16.1457 9.99984C16.1457 10.1387 16.1422 10.2846 16.1353 10.4373C16.1283 10.5901 16.1109 10.7359 16.0832 10.8748L17.8748 12.1665C17.9998 12.2637 18.0832 12.3887 18.1248 12.5415C18.1665 12.6943 18.1457 12.8401 18.0623 12.979L16.6873 15.4165C16.604 15.5693 16.4859 15.67 16.3332 15.7186C16.1804 15.7672 16.0276 15.7568 15.8748 15.6873L13.9373 14.7915C13.7151 14.9721 13.4616 15.1491 13.1769 15.3228C12.8922 15.4964 12.6109 15.6248 12.3332 15.7082L11.9998 17.8123C11.9721 17.9651 11.8991 18.0901 11.7811 18.1873C11.663 18.2846 11.5276 18.3332 11.3748 18.3332ZM9.99984 12.7082C10.7498 12.7082 11.3887 12.4443 11.9165 11.9165C12.4443 11.3887 12.7082 10.7498 12.7082 9.99984C12.7082 9.24984 12.4443 8.61095 11.9165 8.08317C11.3887 7.55539 10.7498 7.2915 9.99984 7.2915C9.24984 7.2915 8.61095 7.55539 8.08317 8.08317C7.55539 8.61095 7.2915 9.24984 7.2915 9.99984C7.2915 10.7498 7.55539 11.3887 8.08317 11.9165C8.61095 12.4443 9.24984 12.7082 9.99984 12.7082Z" fill="#fff" />
</svg>