<svg width="12" height="12" viewBox="0 0 12 12" fill="none" xmlns="http://www.w3.org/2000/svg">
    <g clip-path="url(#clip0_47_474)">
        <path d="M-0.000488281 9.76201V8.58701C-0.000488281 8.29534 0.0745117 8.03076 0.224512 7.79326C0.374512 7.55576 0.582845 7.37868 0.849512 7.26201C1.45784 6.99534 2.00576 6.80368 2.49326 6.68701C2.98076 6.57034 3.48284 6.51201 3.99951 6.51201C4.51618 6.51201 5.01618 6.57034 5.49951 6.68701C5.98284 6.80368 6.52868 6.99534 7.13701 7.26201C7.40368 7.37868 7.61409 7.55576 7.76826 7.79326C7.92243 8.03076 7.99951 8.29534 7.99951 8.58701V9.76201H-0.000488281ZM3.99951 5.74951C3.44951 5.74951 2.99951 5.57451 2.64951 5.22451C2.29951 4.87451 2.12451 4.42451 2.12451 3.87451C2.12451 3.32451 2.29951 2.87451 2.64951 2.52451C2.99951 2.17451 3.44951 1.99951 3.99951 1.99951C4.54951 1.99951 4.99951 2.17451 5.34951 2.52451C5.69951 2.87451 5.87451 3.32451 5.87451 3.87451C5.87451 4.42451 5.69951 4.87451 5.34951 5.22451C4.99951 5.57451 4.54951 5.74951 3.99951 5.74951ZM8.49951 3.87451C8.49951 4.42451 8.32451 4.87451 7.97451 5.22451C7.62451 5.57451 7.17451 5.74951 6.62451 5.74951C6.53284 5.74951 6.43076 5.74326 6.31826 5.73076C6.20576 5.71826 6.10368 5.69534 6.01201 5.66201C6.21201 5.45368 6.36409 5.19743 6.46826 4.89326C6.57243 4.58909 6.62451 4.24951 6.62451 3.87451C6.62451 3.49951 6.57243 3.16826 6.46826 2.88076C6.36409 2.59326 6.21201 2.32868 6.01201 2.08701C6.10368 2.06201 6.20576 2.04118 6.31826 2.02451C6.43076 2.00785 6.53284 1.99951 6.62451 1.99951C7.17451 1.99951 7.62451 2.17451 7.97451 2.52451C8.32451 2.87451 8.49951 3.32451 8.49951 3.87451ZM8.74951 9.76201V8.58701C8.74951 8.06201 8.61618 7.63076 8.34951 7.29326C8.08284 6.95576 7.73284 6.68284 7.29951 6.47451C7.87451 6.54118 8.41618 6.63909 8.92451 6.76826C9.43284 6.89743 9.84534 7.04534 10.162 7.21201C10.437 7.37034 10.6537 7.56618 10.812 7.79951C10.9703 8.03284 11.0495 8.29534 11.0495 8.58701V9.76201H8.74951Z" fill="#fff" />
    </g>
    <defs>
        <clipPath id="clip0_47_474">
            <rect width="12" height="12" fill="#fff" transform="translate(-0.000488281 -0.000244141)" />
        </clipPath>
    </defs>
</svg>