<svg width="24" height="24" viewBox="0 0 24 24" fill="none" xmlns="http://www.w3.org/2000/svg">
    <path d="M13.499 6.0004C13.4988 5.85927 13.4588 5.72106 13.3836 5.60166C13.3083 5.48226 13.201 5.3865 13.0737 5.3254C12.9465 5.2643 12.8046 5.24033 12.6644 5.25625C12.5242 5.27217 12.3913 5.32733 12.281 5.4154L8.73652 8.2504H5.24902C5.05011 8.2504 4.85935 8.32942 4.71869 8.47007C4.57804 8.61072 4.49902 8.80148 4.49902 9.0004V15.0004C4.49902 15.1993 4.57804 15.3901 4.71869 15.5307C4.85935 15.6714 5.05011 15.7504 5.24902 15.7504H8.73652L12.281 18.5854C12.3913 18.6735 12.5242 18.7286 12.6644 18.7445C12.8046 18.7605 12.9465 18.7365 13.0737 18.6754C13.201 18.6143 13.3083 18.5185 13.3836 18.3991C13.4588 18.2797 13.4988 18.1415 13.499 18.0004V6.0004ZM18.0365 12.0004C18.0377 12.887 17.8636 13.7651 17.5243 14.5842C17.1851 15.4033 16.6872 16.1473 16.0595 16.7734L14.999 15.7129C15.4873 15.2259 15.8744 14.6472 16.1383 14.0101C16.4021 13.373 16.5375 12.69 16.5365 12.0004C16.5374 11.3108 16.402 10.6279 16.1382 9.99075C15.8743 9.35365 15.4872 8.77495 14.999 8.2879L16.0595 7.2274C16.6872 7.85351 17.1851 8.5975 17.5243 9.41661C17.8636 10.2357 18.0377 11.1138 18.0365 12.0004Z" fill="#fff" />
</svg>