<svg width="14" height="13" viewBox="0 0 14 13" fill="none" xmlns="http://www.w3.org/2000/svg">
    <rect x="3.6377" y="0.000244141" width="0.661417" height="12.0157" rx="0.330709" fill="#fff" />
    <rect x="2.4248" y="1.98438" width="0.661417" height="8.04724" rx="0.330709" fill="#fff" />
    <rect x="1.2124" y="4.07886" width="0.661417" height="3.85827" rx="0.330709" fill="#fff" />
    <rect x="-0.000488281" y="4.07886" width="0.661417" height="3.85827" rx="0.330709" fill="#fff" />
    <rect x="4.8501" y="1.21265" width="0.661417" height="9.59055" rx="0.330709" fill="#fff" />
    <rect x="6.0625" y="2.97656" width="0.661417" height="6.06299" rx="0.330709" fill="#fff" />
    <rect x="7.27539" y="1.98438" width="0.661417" height="8.04724" rx="0.330709" fill="#fff" />
    <rect x="8.48779" y="4.07886" width="0.661417" height="3.85827" rx="0.330709" fill="#fff" />
    <rect x="9.70068" y="1.98438" width="0.661417" height="8.04724" rx="0.330709" fill="#fff" />
    <rect x="10.9131" y="4.74023" width="0.661417" height="2.53543" rx="0.330709" fill="#fff" />
    <rect x="12.126" y="2.97656" width="0.661417" height="6.06299" rx="0.330709" fill="#fff" />
    <rect x="13.3384" y="4.07886" width="0.661417" height="3.85827" rx="0.330709" fill="#fff" />
</svg>