<svg width="13" height="13" viewBox="0 0 13 13" fill="none" xmlns="http://www.w3.org/2000/svg">
<path d="M8.33853 6.70963C8.4668 6.45232 8.53475 6.16917 8.53724 5.88167V3.51608C8.53201 3.04873 8.35403 2.59985 8.03758 2.2559C7.72112 1.91195 7.28859 1.69727 6.8233 1.65321C6.358 1.60915 5.89286 1.73882 5.51747 2.01725C5.14208 2.29569 4.883 2.70318 4.79014 3.16124L8.33853 6.70963ZM9.95659 5.88167C9.95659 5.75619 9.90675 5.63585 9.81802 5.54712C9.72929 5.4584 9.60895 5.40855 9.48347 5.40855C9.358 5.40855 9.23766 5.4584 9.14893 5.54712C9.0602 5.63585 9.01036 5.75619 9.01036 5.88167C9.00898 6.29501 8.89621 6.70034 8.6839 7.055L9.37939 7.77414C9.76013 7.21687 9.96152 6.55657 9.95659 5.88167ZM6.64476 7.77414H6.72046L4.75229 5.80124V5.88167C4.75229 6.38358 4.95168 6.86494 5.30658 7.21985C5.66149 7.57476 6.14285 7.77414 6.64476 7.77414ZM10.7656 9.80382L3.19573 2.23393C3.15162 2.18981 3.09925 2.15482 3.04161 2.13095C2.98398 2.10707 2.9222 2.09479 2.85982 2.09479C2.79743 2.09479 2.73566 2.10707 2.67802 2.13095C2.62039 2.15482 2.56802 2.18981 2.52391 2.23393C2.43482 2.32302 2.38477 2.44385 2.38477 2.56984C2.38477 2.69583 2.43482 2.81667 2.52391 2.90575L10.0938 10.4756C10.1378 10.52 10.1901 10.5552 10.2478 10.5792C10.3054 10.6032 10.3673 10.6156 10.4297 10.6156C10.4922 10.6156 10.554 10.6032 10.6117 10.5792C10.6693 10.5552 10.7216 10.52 10.7656 10.4756C10.81 10.4317 10.8452 10.3793 10.8692 10.3217C10.8932 10.264 10.9056 10.2022 10.9056 10.1397C10.9056 10.0773 10.8932 10.0154 10.8692 9.95778C10.8452 9.90013 10.81 9.8478 10.7656 9.80382Z" fill="white"/>
<path d="M8.0637 10.1399H7.11747V9.15579C7.3852 9.11852 7.64737 9.04861 7.89811 8.94762L7.14112 8.19063C6.97828 8.2287 6.81158 8.24775 6.64435 8.2474C6.01695 8.2474 5.41526 7.99817 4.97162 7.55454C4.52799 7.1109 4.27876 6.5092 4.27876 5.88181C4.27876 5.75633 4.22891 5.63599 4.14018 5.54726C4.05146 5.45854 3.93112 5.40869 3.80564 5.40869C3.68016 5.40869 3.55982 5.45854 3.47109 5.54726C3.38237 5.63599 3.33252 5.75633 3.33252 5.88181C3.33345 6.67752 3.62084 7.4463 4.14211 8.0475C4.66338 8.64869 5.38368 9.04212 6.17123 9.15579V10.1399H5.22499C5.09951 10.1399 4.97917 10.1897 4.89045 10.2784C4.80172 10.3672 4.75187 10.4875 4.75187 10.613C4.75187 10.7385 4.80172 10.8588 4.89045 10.9475C4.97917 11.0363 5.09951 11.0861 5.22499 11.0861H8.0637C8.18918 11.0861 8.30952 11.0363 8.39825 10.9475C8.48697 10.8588 8.53682 10.7385 8.53682 10.613C8.53682 10.4875 8.48697 10.3672 8.39825 10.2784C8.30952 10.1897 8.18918 10.1399 8.0637 10.1399Z" fill="white"/>
</svg>
