<svg width="35" height="15" viewBox="0 0 35 15" fill="none" xmlns="http://www.w3.org/2000/svg">
    <path d="M34.4639 9.98019L34.0823 11.7349C33.7236 13.3798 32.1496 14.4498 30.4048 14.2354L26.9294 13.8074C25.4166 13.6205 24.1516 12.5083 23.8027 11.0587L22.8337 7.02095C21.2594 6.32681 19.5139 5.98346 17.5977 5.98951C15.7525 5.98046 13.9242 6.34174 12.2211 7.05198L11.4584 10.7893C11.1684 12.204 9.96561 13.235 8.47631 13.3443L5.00459 13.6031C3.2713 13.7312 1.64423 12.5881 1.19616 10.9289L0.715287 9.15166C0.237541 7.38171 0.753036 5.54462 2.07001 4.33179C5.17911 1.4646 10.2699 0.12148 17.3455 0.29692C24.4317 0.472998 29.6062 2.07832 32.8625 5.11108C34.2331 6.38695 34.8433 8.23891 34.4639 9.98019Z" fill="#fff" />
</svg>