<svg width="14" height="18" viewBox="0 0 14 18" fill="none" xmlns="http://www.w3.org/2000/svg">
    <path d="M6.99951 -0.000488281C6.00495 -0.000488281 5.05112 0.3946 4.34786 1.09786C3.6446 1.80112 3.24951 2.75495 3.24951 3.74951V8.99951C3.24951 9.99407 3.6446 10.9479 4.34786 11.6512C5.05112 12.3544 6.00495 12.7495 6.99951 12.7495C7.99407 12.7495 8.9479 12.3544 9.65116 11.6512C10.3544 10.9479 10.7495 9.99407 10.7495 8.99951V3.74951C10.7495 2.75495 10.3544 1.80112 9.65116 1.09786C8.9479 0.3946 7.99407 -0.000488281 6.99951 -0.000488281ZM0.999512 8.24951C1.19842 8.24951 1.38919 8.32853 1.52984 8.46918C1.67049 8.60983 1.74951 8.8006 1.74951 8.99951C1.74951 10.3919 2.30264 11.7273 3.2872 12.7118C4.27177 13.6964 5.60712 14.2495 6.99951 14.2495C8.3919 14.2495 9.72725 13.6964 10.7118 12.7118C11.6964 11.7273 12.2495 10.3919 12.2495 8.99951C12.2495 8.8006 12.3285 8.60983 12.4692 8.46918C12.6098 8.32853 12.8006 8.24951 12.9995 8.24951C13.1984 8.24951 13.3892 8.32853 13.5298 8.46918C13.6705 8.60983 13.7495 8.8006 13.7495 8.99951C13.7498 10.6601 13.138 12.2625 12.0311 13.5003C10.9242 14.7381 9.3998 15.5245 7.74951 15.709V17.2495C7.74951 17.4484 7.67049 17.6392 7.52984 17.7798C7.38919 17.9205 7.19842 17.9995 6.99951 17.9995C6.8006 17.9995 6.60983 17.9205 6.46918 17.7798C6.32853 17.6392 6.24951 17.4484 6.24951 17.2495V15.709C4.59922 15.5245 3.07486 14.7381 1.96793 13.5003C0.860998 12.2625 0.249193 10.6601 0.249512 8.99951C0.249512 8.8006 0.32853 8.60983 0.469182 8.46918C0.609834 8.32853 0.800599 8.24951 0.999512 8.24951Z" fill="#fff" />
</svg>