<svg width="23" height="23" viewBox="0 0 23 23" fill="none" xmlns="http://www.w3.org/2000/svg">
    <path d="M3.7418 4.83496C3.2722 4.83496 2.82184 5.02151 2.48979 5.35356C2.15774 5.68561 1.97119 6.13597 1.97119 6.60557V17.2292C1.97109 17.4618 2.01681 17.6921 2.10575 17.907C2.19468 18.1219 2.32509 18.3172 2.48951 18.4817C2.65394 18.6462 2.84916 18.7767 3.06403 18.8657C3.2789 18.9548 3.50921 19.0006 3.7418 19.0006H19.087C19.5566 19.0006 20.007 18.814 20.3391 18.482C20.6711 18.1499 20.8576 17.6996 20.8576 17.23V6.60635C20.8576 6.13676 20.6711 5.6864 20.3391 5.35435C20.007 5.02229 19.5566 4.83575 19.087 4.83575H3.7418V4.83496ZM11.8299 7.85758L14.3914 10.4191C14.4989 10.5304 14.5583 10.6795 14.5569 10.8343C14.5554 10.989 14.4933 11.137 14.3838 11.2464C14.2743 11.3558 14.1263 11.4178 13.9715 11.4191C13.8168 11.4203 13.6677 11.3608 13.5565 11.2532L12.003 9.6998V15.5601C12.003 15.7166 11.9409 15.8668 11.8302 15.9774C11.7195 16.0881 11.5694 16.1503 11.4128 16.1503C11.2563 16.1503 11.1062 16.0881 10.9955 15.9774C10.8848 15.8668 10.8226 15.7166 10.8226 15.5601V9.70137L9.27238 11.2532C9.21796 11.3096 9.15286 11.3546 9.08087 11.3856C9.00887 11.4165 8.93144 11.4328 8.85307 11.4336C8.7747 11.4343 8.69698 11.4194 8.62443 11.3897C8.55189 11.3601 8.48597 11.3163 8.43053 11.2609C8.37509 11.2055 8.33123 11.1397 8.30152 11.0671C8.27181 10.9946 8.25684 10.9169 8.25748 10.8385C8.25813 10.7602 8.27437 10.6827 8.30527 10.6107C8.33617 10.5387 8.3811 10.4735 8.43744 10.4191L10.995 7.85837C11.0498 7.80352 11.1149 7.76001 11.1865 7.73033C11.2581 7.70065 11.3349 7.68537 11.4125 7.68537C11.49 7.68537 11.5668 7.70065 11.6384 7.73033C11.71 7.76001 11.7751 7.80352 11.8299 7.85837V7.85758Z" fill="#fff" />
</svg>